<mxfile host="app.diagrams.net" modified="2023-09-18T22:21:12.433Z" agent="Mozilla/5.0 (X11; Linux x86_64; rv:109.0) Gecko/20100101 Firefox/116.0" version="21.7.5" etag="FjbTBlnj3RFacQjtXBYi" type="github">
  <diagram name="Page-1" id="HioI8YRIYciOeinHAEBK">
    <mxGraphModel>
      <root>
        <mxCell id="0" />
        <mxCell id="1" parent="0" />
      </root>
    </mxGraphModel>
  </diagram>
</mxfile>
